# xmcd CD database file
#
# Track frame offsets:
#	187
#	26047
#	42162
#	57800
#	78787
#	94247
#	116702
#	134697
#	155672
#
# Disc length: 2320 seconds
#
# Revision: 0
# Processed by: cddbd v1.5.1PL0 Copyright (c) Steve Scherf et al.
# Submitted via: CDex 1.51
#
DISCID=74090e09
DTITLE=岩崎宏美 - わがまま
DYEAR=1986
DGENRE=JPop
TTITLE0=真夏のSILVER MOON
TTITLE1=恋人以上
TTITLE2=姫ごころ
TTITLE3=もういちど・・・
TTITLE4=小さな旅
TTITLE5=道がめざめる時
TTITLE6=SEE YOU AGAIN
TTITLE7=カサノバ L
TTITLE8=好きにならずにいられない
EXTD=YEAR: 1986
EXTT0=
EXTT1=
EXTT2=
EXTT3=
EXTT4=
EXTT5=
EXTT6=
EXTT7=
EXTT8=
PLAYORDER=
